<?xml version="1.0" ?><!DOCTYPE svg  PUBLIC '-//W3C//DTD SVG 1.1//EN'  'http://www.w3.org/Graphics/SVG/1.1/DTD/svg11.dtd'><svg height="1.6699in" style="shape-rendering:geometricPrecision; text-rendering:geometricPrecision; image-rendering:optimizeQuality; fill-rule:evenodd; clip-rule:evenodd" version="1.1" viewBox="0 0 351 351" width="1.6699in" xml:space="preserve" xmlns="http://www.w3.org/2000/svg" xmlns:xlink="http://www.w3.org/1999/xlink"><defs><style type="text/css">
   <![CDATA[
    .fil1 {fill:#FEFEFE}
    .fil3 {fill:#DCDDDD}
    .fil0 {fill:#C9CACA}
    .fil5 {fill:#332C2B}
    .fil7 {fill:#E8F46A}
    .fil6 {fill:#E8F46A}
    .fil2 {fill:#FF6727}
    .fil4 {fill:#FEFEFE;fill-opacity:0.501961}
   ]]>
  </style></defs><g id="Layer_x0020_1"><g id="_1854029518192"><circle class="fil0" cx="176" cy="176" r="176"/><path class="fil1" d="M342 176c0,91 -75,166 -166,166 -92,0 -167,-75 -167,-166l333 0z"/><path class="fil2" d="M176 9c91,0 166,75 166,167l-333 0c0,-92 75,-167 167,-167z"/><path class="fil3" d="M58 281c35,44 186,46 274,-76 -45,174 -236,139 -274,76z"/><path class="fil4" d="M26 140c0,0 -2,-48 51,-89 53,-40 53,-10 41,3 -8,9 -73,14 -92,86z"/><path class="fil5" d="M341 162c1,5 1,9 1,14 0,3 0,7 -1,10l-331 0c0,-3 -1,-7 -1,-10 0,-5 1,-9 1,-14l331 0z"/><circle class="fil5" cx="176" cy="176" r="55"/><circle class="fil1" cx="176" cy="176" r="36"/><path class="fil6" d="M176 39c-8,0 -18,4 -22,11 -6,10 -13,8 -15,3 -1,-7 15,-27 36,-27l0 0 1 0 0 0 0 0c21,0 37,20 36,27 -1,5 -9,7 -14,-3 -4,-7 -15,-11 -22,-11z"/><circle class="fil7" cx="176" cy="66" r="19"/><path class="fil6" d="M176 93c-8,0 -18,-5 -22,-12 -6,-9 -13,-8 -15,-3 -1,8 15,27 36,28l0 0 1 0 0 0 0 0c21,-1 37,-20 36,-28 -1,-5 -9,-6 -14,3 -4,7 -15,12 -22,12z"/></g></g></svg>