<?xml version="1.0" ?><!DOCTYPE svg  PUBLIC '-//W3C//DTD SVG 1.1//EN'  'http://www.w3.org/Graphics/SVG/1.1/DTD/svg11.dtd'><svg height="1.6699in" style="shape-rendering:geometricPrecision; text-rendering:geometricPrecision; image-rendering:optimizeQuality; fill-rule:evenodd; clip-rule:evenodd" version="1.1" viewBox="0 0 715 715" width="1.6699in" xml:space="preserve" xmlns="http://www.w3.org/2000/svg" xmlns:xlink="http://www.w3.org/1999/xlink"><defs><style type="text/css">
   <![CDATA[
    .fil1 {fill:#FEFEFE}
    .fil4 {fill:#DCDDDD}
    .fil0 {fill:#C9CACA}
    .fil7 {fill:#332C2B}
    .fil2 {fill:#1A63A3}
    .fil6 {fill:#E9565C}
    .fil3 {fill:#F9262D}
    .fil5 {fill:#FEFEFE;fill-opacity:0.501961}
   ]]>
  </style></defs><g id="Layer_x0020_1"><g id="_1853992356912"><circle class="fil0" cx="358" cy="358" r="358"/><path class="fil1" d="M696 358c0,186 -152,338 -338,338 -187,0 -339,-152 -339,-338l677 0z"/><path class="fil2" d="M358 19c186,0 338,152 338,339l-677 0c0,-187 152,-339 339,-339z"/><path class="fil3" d="M358 19c54,0 106,13 151,36l-59 36 95 110 -187 157 0 0 -188 -157 95 -110 -59 -36c45,-23 97,-36 152,-36z"/><path class="fil4" d="M118 572c71,89 378,94 558,-155 -92,356 -480,283 -558,155z"/><path class="fil5" d="M55 278c0,0 6,-116 139,-200 134,-84 127,-14 96,15 -22,18 -175,19 -235,185z"/><rect class="fil6" height="132.205" width="23.6871" x="346" y="104"/><rect class="fil6" height="132.205" width="23.6871" x="393" y="104"/><rect class="fil6" height="132.205" width="23.6871" x="298" y="104"/><path class="fil7" d="M695 330c1,9 1,18 1,28 0,7 0,14 -1,21l-675 0c0,-7 -1,-14 -1,-21 0,-10 1,-19 1,-28l675 0z"/><circle class="fil7" cx="358" cy="358" r="113"/><circle class="fil1" cx="358" cy="358" r="74"/></g></g></svg>