<?xml version="1.0" ?><!DOCTYPE svg  PUBLIC '-//W3C//DTD SVG 1.1//EN'  'http://www.w3.org/Graphics/SVG/1.1/DTD/svg11.dtd'><svg height="1.6699in" style="shape-rendering:geometricPrecision; text-rendering:geometricPrecision; image-rendering:optimizeQuality; fill-rule:evenodd; clip-rule:evenodd" version="1.1" viewBox="0 0 16706 16706" width="1.6699in" xml:space="preserve" xmlns="http://www.w3.org/2000/svg" xmlns:xlink="http://www.w3.org/1999/xlink"><defs><style type="text/css">
   <![CDATA[
    .fil1 {fill:#FEFEFE}
    .fil4 {fill:#DCDDDD}
    .fil0 {fill:#C9CACA}
    .fil7 {fill:#332C2B}
    .fil2 {fill:#2F8369}
    .fil6 {fill:#E9565C}
    .fil3 {fill:#F9262D}
    .fil5 {fill:#FEFEFE;fill-opacity:0.501961}
   ]]>
  </style></defs><g id="Layer_x0020_1"><g id="_1854004328816"><circle class="fil0" cx="8353" cy="8353" r="8353"/><path class="fil1" d="M16256 8353c0,4365 -3538,7903 -7903,7903 -4365,0 -7903,-3538 -7903,-7903l15806 0z"/><path class="fil2" d="M8353 450c4365,0 7903,3538 7903,7903l-15806 0c0,-4365 3538,-7903 7903,-7903z"/><path class="fil3" d="M8353 450c1275,0 2479,302 3546,838l-1380 833 2223 2570 -4389 3662 0 0 -4389 -3662 2223 -2570 -1380 -833c1067,-536 2271,-838 3546,-838z"/><path class="fil4" d="M2751 13372c1663,2064 8834,2195 13046,-3636 -2166,8312 -11216,6611 -13046,3636z"/><path class="fil5" d="M1285 6492c0,0 140,-2697 3254,-4663 3113,-1966 2969,-323 2226,333 -495,437 -4084,448 -5480,4330z"/><rect class="fil6" height="3088" width="553" x="8076" y="2422"/><rect class="fil6" height="3088" width="553" x="9183" y="2422"/><rect class="fil6" height="3088" width="553" x="6970" y="2422"/><path class="fil7" d="M16231 7720c16,209 25,420 25,633 0,172 -6,342 -17,511l-15772 0c-11,-169 -17,-339 -17,-511 0,-213 8,-424 25,-633l15756 0z"/><circle class="fil7" cx="8353" cy="8353" r="2634"/><circle class="fil1" cx="8353" cy="8353" r="1735"/></g></g></svg>