<?xml version="1.0" ?><!DOCTYPE svg  PUBLIC '-//W3C//DTD SVG 1.1//EN'  'http://www.w3.org/Graphics/SVG/1.1/DTD/svg11.dtd'><svg height="1.6699in" style="shape-rendering:geometricPrecision; text-rendering:geometricPrecision; image-rendering:optimizeQuality; fill-rule:evenodd; clip-rule:evenodd" version="1.1" viewBox="0 0 728 728" width="1.6699in" xml:space="preserve" xmlns="http://www.w3.org/2000/svg" xmlns:xlink="http://www.w3.org/1999/xlink"><defs><style type="text/css">
   <![CDATA[
    .fil1 {fill:#FEFEFE}
    .fil0 {fill:#C9CACA}
    .fil4 {fill:#332C2B}
    .fil2 {fill:#E62129}
    .fil3 {fill:#FFFC58}
    .fil6 {fill:#FEFEFE;fill-opacity:0.501961}
    .fil5 {fill:#B6B6B7;fill-opacity:0.501961}
   ]]>
  </style></defs><g id="Layer_x0020_1"><g id="_1853992370960"><circle class="fil0" cx="364" cy="364" r="364"/><path class="fil1" d="M708 364c0,190 -154,344 -344,344 -190,0 -344,-154 -344,-344l688 0z"/><path class="fil2" d="M364 20c190,0 344,154 344,344l-688 0c0,-190 154,-344 344,-344z"/><path class="fil3" d="M364 20c26,0 52,3 77,8 20,20 32,47 32,78 0,60 -49,109 -109,109 -61,0 -110,-49 -110,-109 0,-31 13,-58 33,-78 25,-5 50,-8 77,-8z"/><circle class="fil3" cx="364" cy="364" r="150"/><path class="fil4" d="M707 336c1,9 1,18 1,28 0,7 0,15 -1,22l-687 0c0,-7 0,-15 0,-22 0,-10 0,-19 1,-28l686 0z"/><circle class="fil4" cx="364" cy="364" r="115"/><circle class="fil1" cx="364" cy="364" r="76"/><path class="fil5" d="M120 582c72,90 384,96 568,-158 -94,362 -489,288 -568,158z"/><circle class="fil4" cx="364" cy="106" r="77"/><path class="fil6" d="M44 329c0,0 -9,-117 115,-219 124,-102 127,-31 98,2 -19,21 -174,42 -213,217z"/></g></g></svg>