<?xml version="1.0" ?><!DOCTYPE svg  PUBLIC '-//W3C//DTD SVG 1.1//EN'  'http://www.w3.org/Graphics/SVG/1.1/DTD/svg11.dtd'><svg height="1.6699in" style="shape-rendering:geometricPrecision; text-rendering:geometricPrecision; image-rendering:optimizeQuality; fill-rule:evenodd; clip-rule:evenodd" version="1.1" viewBox="0 0 644 644" width="1.6699in" xml:space="preserve" xmlns="http://www.w3.org/2000/svg" xmlns:xlink="http://www.w3.org/1999/xlink"><defs><style type="text/css">
   <![CDATA[
    .fil1 {fill:#FEFEFE}
    .fil5 {fill:#DCDDDD}
    .fil0 {fill:#C9CACA}
    .fil3 {fill:#332C2B}
    .fil2 {fill:#2B8637}
    .fil6 {fill:#103D16;fill-rule:nonzero}
    .fil4 {fill:#FEFEFE;fill-opacity:0.501961}
   ]]>
  </style></defs><g id="Layer_x0020_1"><circle class="fil0" cx="322" cy="322" r="322"/><path class="fil1" d="M627 322c0,168 -137,305 -305,305 -168,0 -305,-137 -305,-305l610 0z"/><path class="fil2" d="M322 17c168,0 305,137 305,305l-610 0c0,-168 137,-305 305,-305z"/><path class="fil3" d="M626 298c1,8 1,16 1,24 0,7 0,13 -1,20l-608 0c0,-7 -1,-13 -1,-20 0,-8 1,-16 1,-24l608 0z"/><circle class="fil3" cx="322" cy="322" r="102"/><circle class="fil1" cx="322" cy="322" r="67"/><path class="fil4" d="M50 250c0,0 5,-104 125,-179 120,-76 115,-13 86,12 -19,17 -158,18 -211,167z"/><path class="fil5" d="M106 516c64,79 341,84 503,-141 -83,321 -432,255 -503,141z"/><path class="fil6" d="M290 184l10 -1c1,4 2,8 3,10 2,3 5,5 9,7 3,1 7,2 12,2 4,0 8,-1 11,-2 3,-1 5,-3 7,-5 1,-2 2,-4 2,-7 0,-2 -1,-5 -2,-6 -2,-2 -4,-4 -8,-5 -2,-1 -6,-2 -14,-4 -7,-2 -12,-4 -15,-5 -4,-2 -7,-5 -9,-8 -2,-3 -3,-6 -3,-10 0,-4 1,-8 4,-11 2,-4 5,-6 10,-8 4,-2 9,-3 15,-3 5,0 11,1 15,3 5,2 8,5 11,9 2,3 4,7 4,12l-10 1c-1,-5 -3,-9 -6,-12 -3,-2 -8,-3 -14,-3 -7,0 -11,1 -14,3 -3,2 -5,5 -5,9 0,3 1,5 4,7 2,2 7,4 16,6 8,2 14,3 17,5 5,2 9,5 11,8 2,3 3,7 3,11 0,5 -1,9 -4,12 -2,4 -5,7 -10,9 -5,2 -10,3 -16,3 -7,0 -13,-1 -18,-3 -5,-2 -9,-5 -11,-9 -3,-5 -5,-9 -5,-15z"/></g></svg>